<svg width="166" height="25" viewBox="0 0 166 25" fill="none" xmlns="http://www.w3.org/2000/svg">
<path fill-rule="evenodd" clip-rule="evenodd" d="M75.966 23.7113C75.4668 23.4645 74.9865 23.1853 74.5278 22.8764C74.5183 22.87 74.5088 22.8636 74.4993 22.8572L74.5268 22.8559C75.0589 22.8292 75.5936 22.7649 76.1297 22.6719C77.8879 22.3669 79.6605 21.7535 81.4066 21.1492L81.4711 21.1269C84.5278 20.0691 87.5889 19.0234 90.8082 19.2548C91.1808 19.2816 91.5554 19.3255 91.9324 19.3884C91.7239 19.7035 91.5015 20.0086 91.2661 20.3028C88.9755 23.1661 85.4519 25 81.5 25C79.5129 25 77.6342 24.5364 75.966 23.7113ZM77.7013 23.3581C78.8901 23.7739 80.1682 24 81.5 24C84.8782 24 87.9166 22.544 90.0216 20.2225C87.3012 20.1928 84.6428 21.0875 81.7981 22.0719L81.7336 22.0942L81.663 22.1186C80.396 22.5572 79.0617 23.019 77.7013 23.3581ZM72.594 5.22376C74.5096 4.8386 76.5825 4.83864 78.6213 4.83869L78.6896 4.83869C82.0641 4.83869 85.4389 4.82481 88.5093 3.3822C88.8346 3.22935 89.1565 3.06045 89.4747 2.87383C89.1951 2.64198 88.9053 2.42207 88.606 2.21489C86.5883 0.818227 84.1397 0 81.5 0C77.7256 0 74.3418 1.67291 72.0499 4.31771C71.8386 4.56146 71.6367 4.81347 71.4445 5.07319C71.3081 5.25759 71.1766 5.44588 71.0503 5.63785C71.219 5.57969 71.3895 5.5257 71.5616 5.47563C71.8997 5.37726 72.2443 5.29409 72.594 5.22376ZM73.7165 4.03409C75.3319 3.83851 76.9874 3.8386 78.5466 3.83869L78.6896 3.83869C81.8887 3.83869 84.8568 3.8112 87.544 2.7143C85.788 1.62714 83.7181 1 81.5 1C78.4985 1 75.7652 2.14944 73.7165 4.03409ZM92.7734 17.9068C93.5596 16.2705 94 14.4367 94 12.5C94 9.22879 92.7434 6.25107 90.6867 4.02318C86.8536 6.45188 82.5771 6.45173 78.774 6.4516L78.6896 6.4516C76.1991 6.4516 73.9598 6.45773 72.0121 7.02433C71.2351 7.25036 70.5048 7.56604 69.8293 8.01339C69.2936 9.40598 69 10.9187 69 12.5C69 15.8371 70.3077 18.8687 72.4385 21.1105C73.0997 21.2425 73.7677 21.2789 74.4461 21.245C76.472 21.1435 78.5901 20.4171 80.9437 19.6026L81.0235 19.575C84.5354 18.3596 88.4745 16.9964 92.7734 17.9068ZM72.9434 20.1835C71.1126 18.1462 70 15.454 70 12.5C70 11.1591 70.2291 9.87365 70.6496 8.67947C71.154 8.38189 71.7001 8.15655 72.2915 7.98453C74.076 7.4654 76.1625 7.4516 78.6896 7.4516C78.6895 7.4516 78.6896 7.4516 78.6896 7.4516L78.774 7.4516C78.8055 7.4516 78.8371 7.4516 78.8688 7.45161C82.3887 7.4519 86.5972 7.45226 90.4757 5.30986C92.0557 7.27947 93 9.77854 93 12.5C93 14.0149 92.7076 15.4595 92.1767 16.7819C87.9207 16.1295 84.0401 17.4727 80.7842 18.5997L80.6167 18.6576C78.2286 19.484 76.2522 20.1533 74.3961 20.2462C73.8965 20.2712 73.4139 20.2532 72.9434 20.1835Z" fill="#345A4B"/>
<line x1="0.995605" y1="11.5" x2="58.0044" y2="11.5" stroke="#345A4B"/>
<line x1="108" y1="11.5" x2="165.009" y2="11.5" stroke="#345A4B"/>
</svg>
