<svg width="22" height="22" viewBox="0 0 22 22" fill="none" xmlns="http://www.w3.org/2000/svg">
<path fill-rule="evenodd" clip-rule="evenodd" d="M20.1805 17.0617C18.2118 20.0374 14.8351 22 11 22C8.71727 22 6.59694 21.3047 4.83926 20.1142C4.84735 20.1139 4.85544 20.1135 4.86353 20.1131C6.86799 20.0127 8.91274 19.3051 10.9178 18.6112L10.9746 18.5915C13.9757 17.553 16.9817 16.5277 20.1805 17.0617ZM20.9206 15.7579C17.1375 14.9568 13.6711 16.1564 10.5806 17.2259L10.5104 17.2502C8.43927 17.9669 6.57533 18.6062 4.79253 18.6955C4.19551 18.7254 3.60763 18.6933 3.02581 18.5771C1.15071 16.6044 0 13.9366 0 11C0 9.60844 0.258397 8.27723 0.729826 7.05174C1.32422 6.65809 1.9669 6.38032 2.65061 6.18142C4.36459 5.68281 6.33511 5.67741 8.52677 5.67741L8.60104 5.67741C11.9478 5.67753 15.7112 5.67766 19.0843 3.54038C20.8942 5.50092 22 8.12133 22 11C22 12.7043 21.6124 14.318 20.9206 15.7579ZM2.25414 4.81856C2.10269 4.86262 1.95271 4.91012 1.80428 4.96129C3.7708 1.97275 7.15502 0 11 0C13.6675 0 16.1132 0.949497 18.0177 2.52895C15.0956 4.24311 11.811 4.25806 8.52677 4.25806L8.46667 4.25806C6.34496 4.25801 4.18123 4.25795 2.25414 4.81856Z" fill="white"/>
</svg>
