<svg width="30" height="19" viewBox="0 0 30 19" fill="none" xmlns="http://www.w3.org/2000/svg">
<path fill-rule="evenodd" clip-rule="evenodd" d="M0 1.85199C0 2.49643 0.352728 3.6472 0.584786 4.25482C0.863256 4.9637 1.14173 5.69099 1.44804 6.38146L2.11637 7.72557C2.45053 8.39762 2.80326 9.01444 3.18384 9.64967C3.6758 10.4782 4.19561 11.2976 4.75255 12.0709C4.82681 12.1722 4.89178 12.255 4.95676 12.3655L6.03351 13.7925C6.11705 13.8845 6.19131 13.9674 6.26557 14.0503C6.33982 14.1515 6.41408 14.2252 6.50691 14.3264L6.98959 14.8512C7.32375 15.1734 7.6672 15.5048 8.03849 15.7902C8.51189 16.1585 8.98528 16.5175 9.48653 16.8489L10.4333 17.4013C11.1109 17.7696 11.8442 18.0181 12.5775 18.2575C13.6636 18.5981 16.5875 18.9848 17.3394 18.1286C17.5621 17.8892 17.5529 17.4934 17.5529 17.0423V14.4369C17.5529 13.9766 17.5714 13.6084 17.8499 13.4334C18.1098 13.2769 18.676 13.3322 18.9452 13.4334C19.8456 13.7649 20.5696 14.4185 21.2565 15.0537C21.5907 15.3575 21.9341 15.6798 22.2497 16.0112C22.3147 16.0848 22.3333 16.1217 22.3982 16.1953L22.7138 16.5267C22.7695 16.5912 22.8252 16.6372 22.8809 16.6924L23.345 17.208C23.4193 17.2816 23.4286 17.3093 23.4935 17.3829C23.5492 17.4473 23.6049 17.4842 23.6606 17.5486C23.7349 17.6223 23.7442 17.6499 23.8091 17.7235C23.9113 17.8432 24.0226 17.9445 24.1433 18.0458C24.5889 18.3772 24.8395 18.635 25.5357 18.635H28.7938C29.1279 18.635 29.3971 18.5705 29.6106 18.4508C30.4831 17.9537 29.6756 16.582 29.2579 16.0296L28.5895 15.1274C28.4689 14.9709 28.3575 14.842 28.2368 14.6947C28.1718 14.6118 28.1254 14.5566 28.0604 14.4829L27.6799 14.041C27.1693 13.3874 26.5381 12.789 25.9534 12.1998C24.0876 10.3493 24.3197 10.5519 25.5078 8.78428L27.1879 6.25257C27.8562 5.22147 28.506 4.13514 29.0072 3.02118C29.1279 2.77261 29.3971 2.04532 29.3971 1.7139C29.3971 1.17993 28.9608 0.958984 28.4689 0.958984H24.9602C23.7349 0.958984 23.5585 2.09135 23.1223 2.95674C22.5839 4.02466 22.0641 5.06496 21.4143 6.05924C21.0337 6.64844 20.6532 7.22843 20.2169 7.7716C20.1426 7.86366 20.0869 7.93731 20.0127 8.02937L19.6692 8.42524C19.6135 8.48048 19.6135 8.49889 19.5578 8.55413C19.3908 8.72905 18.9638 9.12491 18.7967 9.23539C18.6018 9.37348 18.3697 9.52999 18.0727 9.52999C17.3579 9.52999 17.5529 8.02017 17.5529 7.56906V2.57928C17.5529 1.7139 17.5621 0.958984 16.6803 0.958984H11.3987C10.9903 0.958984 10.6561 1.24438 10.6004 1.63104C10.5261 2.18341 11.3151 2.69896 11.64 3.54594C11.7514 3.84974 11.8907 4.3745 11.8907 4.77957V9.9903C11.8907 11.049 11.2873 11.049 10.6375 10.5611C10.4055 10.377 10.1641 10.1468 9.97849 9.90744C9.93208 9.843 9.90423 9.82459 9.85782 9.76014C9.31017 9.06968 8.8182 8.33318 8.36337 7.57827C8.22413 7.35732 8.11275 7.13637 7.98279 6.92462C7.91782 6.80494 7.88069 6.70367 7.80643 6.58399C7.53724 6.14209 7.24949 5.48845 7.02672 5.00052C6.67399 4.20879 6.31198 3.40784 6.04279 2.58849C5.78288 1.81516 5.49513 0.958984 4.51121 0.958984H1.03962C0.417704 0.958984 0 1.23517 0 1.85199Z" fill="white"/>
</svg>
