<svg width="31" height="31" viewBox="0 0 31 31" fill="none" xmlns="http://www.w3.org/2000/svg">
<path fill-rule="evenodd" clip-rule="evenodd" d="M3.01639 14.5533C3.01639 3.91986 16.2623 -1.54319 23.9016 6.09857C33.8033 15.9516 21.7377 31.6253 9.83606 25.5444C9.63934 25.4794 8.59016 24.7965 8.59016 24.7965C7.93442 24.7965 4.36065 26.0322 3.80328 26.2923C4.59016 22.8454 5.83606 22.7479 4.72131 20.8618C3.60656 18.9432 3.01639 17.2198 3.01639 14.5533ZM0.491803 13.8054C0.491803 21.0244 2.78688 21.0244 2.32787 22.8454C2.06557 23.9185 1.5082 25.2518 1.11475 26.3899C0.754098 27.463 0.0983606 28.9913 0 30.0644C1.14754 29.7718 2.22951 29.349 3.44262 28.9588C4.72131 28.5361 5.93443 28.1784 7.11475 27.8207C9.27869 27.1378 9.14754 29.3165 16.1639 29.3165C23.1475 29.3165 30.0328 22.4877 30.0328 15.5288C30.0328 10.6836 29.1147 7.75699 25.6721 4.34259C16 -5.25026 0.491803 2.45654 0.491803 13.8054Z" fill="white"/>
<path fill-rule="evenodd" clip-rule="evenodd" d="M7.57373 11.3014C7.57373 14.2605 9.9016 16.8945 11.3442 18.5529C12.0983 19.3984 13.377 20.3414 14.4918 20.9593C16.2623 21.9348 17.7049 22.2925 19.6721 22.2925C21.377 22.2925 22.9508 20.504 22.9508 18.7806C22.9508 18.0652 19.9672 16.7319 19.1803 16.5368C18.459 17.0246 17.9016 17.8375 17.4098 18.5529C15.2459 18.0326 12.0983 15.6588 11.6065 13.5451C13.4098 10.8786 13.377 12.9598 12.1967 8.92756C11.7377 7.33417 11.7049 7.52928 9.83603 7.52928C8.68848 7.52928 7.57373 9.9031 7.57373 11.3014Z" fill="white"/>
</svg>
